<?xml version="1.0" encoding="utf-8"?>
<!-- Designed by Vexels.com - 2020 All Rights Reserved - https://vexels.com/terms-and-conditions/  -->
<svg version="1.1" id="Layer_1" xmlns="http://www.w3.org/2000/svg" xmlns:xlink="http://www.w3.org/1999/xlink" x="0px" y="0px"
	 viewBox="0 0 1200 1200" enable-background="new 0 0 1200 1200" xml:space="preserve">
<path fill="#503271" d="M1132.434,304.972c-9.64-30.115-29.475-57.026-57.892-75.119V208.07c0-0.857-0.081-1.685-0.12-2.529
	c26.764-19.919,44.529-47.87,52.073-78.302c-33.616-5.917-69.465,0.392-100.333,20.475c-4.809,3.129-9.357,6.506-13.648,10.1h-0.119
	c0.088-5.615-0.157-11.295-0.762-17.018c-3.867-36.622-21.567-68.429-47.349-90.796c-20.542,27.259-31.207,62.061-27.34,98.683
	c0.153,1.44,0.333,2.87,0.528,4.296c-1.234-0.74-2.477-1.47-3.741-2.176c-32.139-17.977-68.33-21.88-101.475-13.732
	c2.28,7.123,5.163,14.052,8.561,20.744H738.201c-28.655,0-50.264,21.606-50.264,50.256v34.075c0,26.385,19.339,47.432,45.983,50.047
	c0.034,0.003,0.155,0.014,0.189,0.017l0.542,0.047l50.284,4.246l-85.544,222.721c-13.806-23.353-32.839-43.304-32.839-43.304
	c-21.728,34.81-16.739,95.964,7.346,109.676L592.825,796.68L406.427,297.982l53.359-5.671c27.327-1.547,47.092-22.546,47.092-50.166
	V208.07c0-28.65-21.607-50.256-50.26-50.256H118.468c-29.019,0-50.902,21.606-50.902,50.256v34.075
	c0,27.431,19.348,48.414,46.106,50.142l81.069,9.395l198.908,536.601c-9.85,7.813-18.769,17.638-25.641,28.546
	c-13.673-26.184-82.525-10.322-82.525-10.322c13.199,25.507,49.361,45.006,69.98,40.699c-2.57,12.738-1.775,25.749,3.749,37.921
	c0.19,0.418,0.421,0.797,0.62,1.206c-23.474,1.728-20.595,56.981-20.595,56.981c17.373-5.437,33.628-24.265,36.561-38.87
	c2.917,1.755,5.985,3.084,9.164,3.79c1.777,0.397,3.61,0.59,5.458,0.59c5.221,0,10.545-1.546,14.973-4.45
	c5.209-3.416,8.672-8.375,9.755-13.964c0.503-2.601-1.196-5.118-3.797-5.621c-2.607-0.512-5.118,1.196-5.621,3.797
	c-0.587,3.026-2.573,5.783-5.599,7.766c-3.813,2.508-8.825,3.472-13.09,2.52c-7.697-1.711-14.836-8.331-19.092-17.712
	c-6.138-13.521-5.363-28.386-0.212-42.497c0.678-1.229,1.199-2.628,1.625-4.13c5.973-13.907,16.077-26.845,27.812-36.744
	l99.846,269.359c7.095,19.964,25.283,32.852,46.387,32.852h34.075c21.213,0,39.562-12.66,46.819-32.277l319.259-816.929l9.391-0.951
	c0.045,0.47,0.056,0.934,0.105,1.404c3.867,36.622,21.567,68.428,47.35,90.796c20.542-27.259,31.207-62.062,27.34-98.683
	c-0.038-0.359-0.09-0.714-0.132-1.072c1.518-0.091,3.014-0.238,4.483-0.446C1063.952,309.282,1099.676,313.024,1132.434,304.972z
	 M1013.171,238.264c-10.234,18.295-33.36,24.831-51.656,14.598c-18.295-10.233-24.831-33.36-14.597-51.656
	c10.233-18.295,33.36-24.831,51.655-14.597C1016.869,196.842,1023.404,219.969,1013.171,238.264z M812.005,279.535l-75.878-6.407
	c-0.111-0.009-0.222-0.02-0.334-0.03c-16.881-1.657-28.671-14.385-28.671-30.953V208.07c0-18.003,13.07-31.07,31.079-31.07H852.55
	c11.478,15.698,26.435,29.236,44.517,39.35c4.742,2.653,9.575,4.992,14.471,7.037c-4.749,2.369-9.414,5.024-13.969,7.988
	c-30.868,20.083-51.163,50.3-59.375,83.429c10.348,1.821,20.909,2.474,31.47,1.933c-5.449,23.295-17.422,51.344-32.995,71.629
	c1.616-18.886-25.685-47.503-25.685-47.503c-14.293,22.899-7.558,66.544,13.044,61.378c-1.428,1.28-2.87,2.505-4.336,3.626
	c-3.232,2.473-6.586,4.843-10.136,7.357c-15.432,10.917-31.392,22.205-35.754,41.057c-3.291,14.208,1.405,28.02,5.946,41.372
	c4.4,12.937,8.556,25.159,5.402,36.869c-1.775,6.589-5.703,12.334-11.774,17.306c5.264-18.67-25.105-50.529-25.105-50.529
	c-12.484,20.001-8.924,55.826,5.903,61.141c-6.369,2.45-13.678,4.584-22.005,6.394c-6.455,1.402-13.932,3.031-21.513,5.348
	c4.007-8.211,3.306-18.272-0.005-28.76L812.005,279.535z M418.769,752.318c7.639,20.853,31.171,39.63,49.395,43.068
	c-7.957,4.516-16.102,8.732-24.122,12.833c-11.39,5.826-23.03,11.811-34.128,18.741L235.232,355.714
	c6.91-17.954,9.815-37.755,7.655-58.202c-0.137-1.296-0.3-2.585-0.475-3.867c1.11,0.667,2.231,1.323,3.369,1.96
	c23.515,13.153,49.439,17.939,74.343,15.336c6.397,9.819,10.387,21.2,11.022,32.844c0.49,8.985-0.788,18.427-2.474,27.803
	c-16.461-23.433-76.426-29.21-76.426-29.21c5.819,37.232,49.717,76.98,70.84,61.957c-1.354,13.419-0.523,26.658,6.365,38.915
	c10.064,17.904,28.759,26.201,48.438,31.6c-16.397,6.116-33.356,20.648-33.356,20.648c23.235,16.275,70.621,10.588,61.018-13.071
	c-0.181-0.446-0.397-0.824-0.595-1.237c14.978,3.547,26.975,8.291,35.877,14.221c-6.768,15.526-9.74,32.958-7.834,51.005
	c0.11,1.045,0.242,2.081,0.383,3.115c-0.895-0.536-1.796-1.066-2.713-1.578c-23.305-13.036-49.549-15.865-73.584-9.957
	c7.545,23.573,23.692,44.453,46.997,57.489c3.439,1.924,6.943,3.619,10.494,5.103c-3.444,1.717-6.827,3.643-10.129,5.792
	c-22.384,14.562-37.1,36.474-43.055,60.498c24.377,4.29,50.372-0.285,72.755-14.847c3.518-2.289,6.847-4.76,9.981-7.391
	c-0.066,4.092,0.113,8.234,0.554,12.408c2.805,26.556,15.639,49.62,34.335,65.839c7.538-10.002,13.233-21.409,16.665-33.675
	c7.283,7.514,12.868,16.066,16.22,25.147c6.042,16.363,4.593,34.889-3.778,48.354c-3.836,6.168-9.395,11.964-17.258,18.002
	C496.649,744.511,418.769,752.318,418.769,752.318z M170.101,214.528c9.215-16.475,30.041-22.361,46.517-13.146
	c16.475,9.216,22.36,30.041,13.145,46.517c-9.215,16.475-30.041,22.361-46.516,13.146S160.886,231.003,170.101,214.528z
	 M488.272,611.376c-7.421,13.267-24.191,18.006-37.457,10.586c-13.267-7.42-18.006-24.191-10.585-37.457
	c7.421-13.267,24.191-18.006,37.457-10.586C490.954,581.34,495.693,598.11,488.272,611.376z M487.692,208.07v34.075
	c0,8.446-2.895,15.787-7.808,21.221c5.864-27.023-36.502-71.437-36.502-71.437c-10.867,17.408-13.287,43.157-8.788,62.488
	c-16.012-6.986-42.762-4.996-42.762-4.996c3.811,11.293,13.675,21.947,23.989,28.269l-36.03,3.829l72.527,194.043
	c-2.649,3.578-5.073,7.325-7.236,11.23c-10.648-6.83-24.677-12.16-42.116-15.908l-0.893-0.19c-8.04-1.728-16.423-3.542-24.485-5.913
	c41.784-9.654,1.184-93.447,1.184-93.447c-23.542,19.924-35.258,62.515-25.679,82.931c-6.291-4.063-11.59-9.151-15.281-15.716
	c-9.171-16.319-5.437-35.517-1.483-55.845c2.514-12.925,5.112-26.29,4.397-39.442c-0.648-11.868-4.338-23.506-10.315-33.846
	c2.262-0.426,4.515-0.895,6.75-1.443c-9.371-29.274-29.422-55.204-58.365-71.393c-4.271-2.389-8.622-4.494-13.032-6.337
	c4.276-2.133,8.478-4.525,12.58-7.193c18.404-11.974,32.604-27.96,42.265-46.048h136.009
	C474.623,177,487.692,190.067,487.692,208.07z M86.752,208.07c0-3.91,0.663-7.568,1.836-10.928
	c9.824,12.251,22.073,22.885,36.622,31.023c4.271,2.389,8.622,4.495,13.031,6.337c-4.276,2.133-8.477,4.525-12.579,7.193
	c-10.793,7.022-20.136,15.429-27.975,24.824c-6.79-5.551-10.934-14.155-10.934-24.374V208.07z M500.775,1072.08
	c8.503-8.268,21.732-10.373,32.612-4.287c13.267,7.421,18.006,24.191,10.585,37.457c-5.07,9.065-14.504,14.117-24.203,14.053
	c-1.972-2.556-3.578-5.467-4.711-8.689L500.775,1072.08z M606.36,1110.921c-0.246,0.675-0.521,1.332-0.808,1.98
	c-6.417-6.425-13.776-12.114-22.096-16.767c-3.439-1.924-6.943-3.619-10.494-5.102c3.443-1.718,6.827-3.644,10.13-5.792
	c22.383-14.563,37.1-36.474,43.055-60.497c-24.376-4.29-50.371,0.284-72.755,14.847c-3.518,2.289-6.846,4.759-9.981,7.391
	c0.067-4.093-0.112-8.234-0.554-12.408c-2.805-26.557-15.639-49.62-34.335-65.839c-14.705,19.513-22.41,44.36-19.908,70.542
	l-75.296-203.128c11.271-7.181,23.321-13.365,35.092-19.387c12.596-6.441,25.552-13.081,37.696-20.987
	c7.763,6.643,14.879,14.025,21.249,22.014c-43.373-4.098-24.164,84.458-24.164,84.458c21.224-10.639,38.547-37.021,41.632-57.526
	c5.515,10.645,9.889,21.88,12.917,33.483c3.363,12.903,5.205,26.571,6.985,39.789c2.707,20.11,5.505,40.904,13.712,60.105
	c2.095,4.912,5.149,11.192,10.174,16.216c5.936,5.93,14.445,9.274,23.504,9.274c0.39,0,0.784-0.006,1.18-0.019
	c9.49-0.303,18.252-4.247,24.032-10.814c5.783-6.567,8.584-15.757,7.682-25.212c-0.899-9.455-5.387-17.949-12.306-23.307
	c-2.095-1.618-5.106-1.237-6.729,0.859c-1.621,2.095-1.237,5.106,0.859,6.729c4.834,3.741,7.978,9.802,8.628,16.631
	c0.653,6.826-1.293,13.374-5.333,17.961c-4.038,4.587-10.286,7.344-17.14,7.566c-6.842,0.219-13.271-2.136-17.593-6.458
	c-3.863-3.857-6.376-9.078-8.138-13.196c-7.691-18.002-10.283-37.244-13.025-57.616c-0.535-3.973-1.091-7.989-1.677-12.017
	c15.626,10.475,51.269,6.119,51.269,6.119c-9.293-23.764-44.683-43.534-55.423-29.066c-0.45-1.992-0.865-3.994-1.379-5.967
	c-8.593-32.928-27.252-63.129-52.758-85.634c10.093-7.401,17.148-14.555,22.003-22.366c10.052-16.163,11.785-37.375,4.634-56.742
	c-4.479-12.128-12.407-23.378-22.82-32.797c1.413-8.7,1.732-17.723,0.761-26.911c-0.11-1.045-0.242-2.081-0.383-3.115
	c0.894,0.537,1.796,1.066,2.712,1.578c6.271,3.508,12.765,6.216,19.361,8.269l72.05,192.764l96.671-251.691
	c9.537,25.39,67.934,1.502,67.934,1.502c-7.658-10.299-20.791-18.168-33.575-21.99c3.471-0.854,7.009-1.66,10.594-2.439
	c35.102-7.629,54.796-21.1,60.208-41.191c3.916-14.53-0.912-28.725-5.58-42.452c-0.552-1.624-1.099-3.236-1.629-4.838
	c27.702,20.379,67.932-46.997,67.932-46.997c-24.934-7.361-59.75,3.045-72.463,18.663c0.133-0.984,0.247-1.971,0.474-2.95
	c3.541-15.288,17.983-25.506,31.951-35.386c3.466-2.454,7.051-4.99,10.423-7.569c26.555-20.321,46.908-63.626,54.158-97.653
	c14.362-1.781,28.598-5.81,42.185-12.227l-162.17,414.965c-3.048-3.479-6.319-6.75-9.804-9.772
	c-14.896,19.767-22.629,45.004-19.825,71.559c0.11,1.045,0.242,2.081,0.383,3.115c-0.894-0.536-1.796-1.066-2.712-1.578
	c-23.305-13.036-49.548-15.865-73.583-9.957c7.545,23.573,23.692,44.452,46.997,57.489c3.439,1.924,6.943,3.619,10.493,5.103
	c-3.443,1.717-6.826,3.643-10.129,5.792c-22.384,14.562-37.1,36.473-43.055,60.497c9.755,1.717,19.768,1.984,29.706,0.785
	L606.36,1110.921z"/>
</svg>
